<svg xmlns="http://www.w3.org/2000/svg" enable-background="new 0 0 64 64" viewBox="0 0 64 64"><path fill="#E5E5E5" d="M14,9h32.9c2.8,0,5,2.2,5,5l0,17.6L52,51c0,2.8-2.2,5-5,5H14"/><path fill="#FFD766" d="M33.4,43.4c0,0-2.6-9.1,9.6-15.2c-0.5,2.6-0.7,3.4-0.7,3.4l3.1-4.6c0,0,10.4-1,14.4-6.1  c-1,3.9-3.1,7.1-3.1,7.1L53.8,30l2.3-0.2c0,0-1.5,3.9-3.4,5.6c-1,0.2-4.7,0.5-4.7,0.5l3.2,1.4c0,0-2.2,2.6-4.1,3.9  c-2.1,0.6-6-1.2-6-1.2s0.9,1.6,3.1,2.3C41.7,44.6,36,43.9,33.4,43.4z"/><path fill="none" stroke="#2C3E50" stroke-linecap="round" stroke-linejoin="round" stroke-miterlimit="10" stroke-width="2" d="M33.4 43.4c0 0-2.6-9.1 9.6-15.2-.5 2.6-.7 3.4-.7 3.4l3.1-4.6c0 0 10.4-1 14.4-6.1-1 3.9-3.1 7.1-3.1 7.1L53.8 30l2.3-.2c0 0-1.5 3.9-3.4 5.6-1 .2-4.7.5-4.7.5l3.2 1.4c0 0-2.2 2.6-4.1 3.9-2.1.6-6-1.2-6-1.2s.9 1.6 3.1 2.3C41.7 44.6 36 43.9 33.4 43.4zM29 50c0 0 4.4-11 20.3-19.8"/><path fill="#B7B7B7" d="M15 51c0 2.8-2.2 5-5 5h.2C7.3 56 5 54 5 51h7M15 14c0-2.8-2.2-5-5-5h.2C7.3 9 5 11 5 14h7"/><path fill="none" stroke="#2C3E50" stroke-linecap="round" stroke-linejoin="round" stroke-miterlimit="10" stroke-width="2" d="M52 41.5l0 9.5c0 2.8-2.2 5-5 5H10.2C7.3 56 5 54 5 51h7M10 9h36.9c2.8 0 5 2.2 5 5l0 7.8"/><path fill="none" stroke="#2C3E50" stroke-linecap="round" stroke-linejoin="round" stroke-miterlimit="10" stroke-width="2" d="  M10.3,56c5.1,0,4.7-5.5,4.7-5.5V14c0-2.8-2.2-5-5-5s-5,2.2-5,5h7"/><line x1="25" x2="43" y1="17" y2="17" fill="none" stroke="#2C3E50" stroke-linecap="round" stroke-linejoin="round" stroke-miterlimit="10" stroke-width="2"/><line x1="25" x2="43" y1="22" y2="22" fill="none" stroke="#2C3E50" stroke-linecap="round" stroke-linejoin="round" stroke-miterlimit="10" stroke-width="2"/><line x1="25" x2="38" y1="27" y2="27" fill="none" stroke="#2C3E50" stroke-linecap="round" stroke-linejoin="round" stroke-miterlimit="10" stroke-width="2"/></svg>