<svg xmlns="http://www.w3.org/2000/svg" viewBox="0 0 64 64"><path fill="#222" d="M27.2852,58.5015h-7.25a6.26,6.26,0,0,1-6.1475-5.0669L11.2012,43.73c-2.3907-6.7808-1.35-10.3887-.0537-12.2232a5.3958,5.3958,0,0,1,4.5171-2.3374h5.94a23.4509,23.4509,0,0,1,.248-7.3564c1.4444-5.7769,4.6074-6.0293,5.8965-5.8706,2.0166.2485,3.853,2.0054,3.853,3.686A11.1308,11.1308,0,0,0,34.56,27.91c3.0092,3.0087,8.4394,3.8144,8.4936,3.8222a1.5,1.5,0,1,1-.4238,2.97c-.2632-.0375-6.4824-.9624-10.1909-4.6708A14.0277,14.0277,0,0,1,28.6025,19.71a1.7642,1.7642,0,0,0-1.417-.7979c-.9584.0386-1.8637,1.3955-2.4223,3.6289-.7647,3.0591.0166,7.8345.0244,7.8824a1.5,1.5,0,0,1-1.48,1.7465H15.6646a2.4059,2.4059,0,0,0-2.0669,1.0689c-.587.8305-1.7178,3.4223.4492,9.54.0117.0332.0219.0669.0317.1006l2.7173,9.8149c.0117.0435.022.087.03.1309a3.2612,3.2612,0,0,0,3.2095,2.6763h7.25c5.52,0,12.8852-1.229,14.4794-2.8736a1.5,1.5,0,0,1,2.1543,2.0879C40.9229,57.8062,30.6484,58.5015,27.2852,58.5015Zm1.3305-38.7588Z"/><path fill="#222" d="M52.7266 58.3071H42.8418a1.5 1.5 0 0 1-1.5-1.5V31.2729a1.5 1.5 0 0 1 1.5-1.5h9.8848a1.5 1.5 0 0 1 1.5 1.5V56.8071A1.5 1.5 0 0 1 52.7266 58.3071zm-8.3848-3h6.8848V32.7729H44.3418zM27.0576 12.74a1.5 1.5 0 0 1-1.5-1.5V6.9985a1.5 1.5 0 0 1 3 0V11.24A1.5 1.5 0 0 1 27.0576 12.74zM34.7876 17.126a1.5 1.5 0 0 1-.7749-2.7852l3.6348-2.187a1.5 1.5 0 1 1 1.5468 2.57L35.56 16.9111A1.495 1.495 0 0 1 34.7876 17.126zM19.3281 17.126a1.4944 1.4944 0 0 1-.7719-.2149l-3.6348-2.187a1.5 1.5 0 0 1 1.5469-2.57l3.6347 2.187a1.5 1.5 0 0 1-.7749 2.7852z"/></svg>